<?xml version="1.0" encoding="UTF-8"?>
<svg width="1440px" height="1024px" viewBox="0 0 1440 1024" version="1.1" xmlns="http://www.w3.org/2000/svg" xmlns:xlink="http://www.w3.org/1999/xlink">
    <!-- Generator: Sketch 53.1 (72631) - https://sketchapp.com -->
    <title>Desktop HD</title>
    <desc>Created with Sketch.</desc>
    <g id="Desktop-HD" stroke="none" stroke-width="1" fill="none" fill-rule="evenodd">
        <rect fill="#272822" x="0" y="0" width="1440" height="1024"></rect>
        <g id="noun_Star_854244" opacity="0.336704799" transform="translate(934.000000, -24.000000)" stroke="#FFFFFF" stroke-width="2">
            <circle id="Oval" cx="33.052" cy="34.086" r="27.125"></circle>
            <path d="M7.054,41.845 C1.066,51.559 -0.985,59.766 2.496,63.247 C8.182,68.933 26.472,59.86 43.349,42.983 C60.226,26.106 69.298,7.816 63.613,2.13 C59.901,-1.582 50.816,0.997 40.259,7.931" id="Path"></path>
        </g>
        <g id="noun_Star_854244" opacity="0.336704799" transform="translate(42.000000, 161.000000)" stroke="#FFFFFF" stroke-width="2">
            <circle id="Oval" cx="33.052" cy="34.086" r="27.125"></circle>
            <path d="M7.054,41.845 C1.066,51.559 -0.985,59.766 2.496,63.247 C8.182,68.933 26.472,59.86 43.349,42.983 C60.226,26.106 69.298,7.816 63.613,2.13 C59.901,-1.582 50.816,0.997 40.259,7.931" id="Path"></path>
        </g>
        <g id="noun_Planet_854249" opacity="0.336704799" transform="translate(1399.000000, 219.000000)" stroke="#FFFFFF" stroke-linecap="round" stroke-linejoin="round">
            <path d="M52.146,18.218 C53.23,30.428 45.459,43.466 31.979,50.102 C28.513,51.809 24.941,52.95 21.394,53.575 C23.18,53.95 25.03,54.15 26.927,54.15 C41.735,54.15 53.739,42.146 53.739,27.338 C53.739,24.135 53.176,21.065 52.146,18.218 Z" id="Path"></path>
            <path d="M52.146,18.218 C50.865,14.677 48.857,11.487 46.306,8.818 C50.933,22.456 42.973,38.755 27.344,46.45 C22.72,48.727 17.908,50.007 13.216,50.379 C15.709,51.866 18.463,52.96 21.394,53.575 C24.941,52.95 28.513,51.809 31.979,50.102 C45.459,43.466 53.23,30.428 52.146,18.218 Z" id="Path"></path>
            <path d="M42.833,5.754 C48.019,19.54 40.061,36.3 24.143,44.137 C19.491,46.428 14.648,47.711 9.93,48.074 C10.963,48.922 12.062,49.691 13.216,50.379 C17.907,50.008 22.719,48.727 27.344,46.45 C42.973,38.755 50.933,22.456 46.306,8.818 C45.238,7.701 44.078,6.674 42.833,5.754 Z" id="Path"></path>
            <path d="M42.833,5.754 C41.054,4.441 39.106,3.345 37.029,2.499 C40.549,15.792 32.615,31.141 17.59,38.539 C13.375,40.614 9.004,41.865 4.71,42.351 C6.166,44.502 7.928,46.429 9.931,48.073 C14.649,47.711 19.491,46.427 24.144,44.136 C40.061,36.3 48.019,19.54 42.833,5.754 Z" id="Path"></path>
            <path d="M10.071,29.978 C7.022,31.479 3.891,32.544 0.767,33.206 C1.509,36.529 2.861,39.621 4.711,42.351 C9.004,41.864 13.376,40.614 17.591,38.539 C32.616,31.141 40.549,15.792 37.03,2.499 C34.921,1.64 32.678,1.045 30.34,0.748 C30.172,12.153 22.577,23.821 10.071,29.978 Z" id="Path"></path>
            <path d="M30.339,0.748 C29.221,0.606 28.084,0.524 26.927,0.524 C26.777,0.524 26.63,0.533 26.481,0.535 C25.288,11.07 17.925,21.453 6.378,27.137 C4.351,28.135 2.287,28.939 0.214,29.562 C0.316,30.802 0.502,32.018 0.767,33.204 C3.891,32.543 7.022,31.478 10.071,29.976 C22.577,23.821 30.172,12.153 30.339,0.748 Z" id="Path"></path>
            <path d="M0.114,27.337 C0.114,28.087 0.153,28.829 0.213,29.563 C2.287,28.939 4.35,28.136 6.377,27.138 C17.924,21.453 25.286,11.071 26.48,0.536 C11.879,0.775 0.114,12.679 0.114,27.337 Z" id="Path"></path>
            <circle id="Oval" stroke-width="2" cx="26.927" cy="27.337" r="26.812"></circle>
        </g>
        <g id="noun_Planet_854256" opacity="0.336704799" transform="translate(233.000000, 531.000000)" stroke="#FFFFFF" stroke-linecap="round" stroke-linejoin="round">
            <path d="M37.949,30.579 C42.5743848,30.579 46.324,28.1165661 46.324,25.079 C46.324,22.0414339 42.5743848,19.579 37.949,19.579 C33.3236152,19.579 29.574,22.0414339 29.574,25.079 C29.574,28.1165661 33.3236152,30.579 37.949,30.579 Z" id="Oval" stroke-dasharray="0.5241,3.1446,0.5241,3.1446,0.5241,3.1446"></path>
            <path d="M34.324,32.829 C34.324,32.829 58.651,45.009 67.776,22.259 C69.449,15.454 67.324,8.829 60.449,5.204" id="Path" stroke-dasharray="0.5,3,0.5,3,0.5,3"></path>
            <path d="M42.699,32.329 C42.699,32.329 60.324,32.204 60.074,17.204 C59.824,2.204 38.449,-0.421 32.699,0.329" id="Path" stroke-dasharray="0.5,3,0.5,3,0.5,3"></path>
            <path d="M48.949,27.329 C48.949,27.329 60.199,16.329 42.574,7.704 C24.949,-0.921 7.574,11.079 7.574,11.079" id="Path" stroke-dasharray="0.5,3,0.5,3,0.5,3"></path>
            <path d="M47.324,21.829 C47.324,21.829 44.074,10.329 25.699,9.829 C7.324,9.329 -1.801,23.829 0.324,29.579" id="Path" stroke-dasharray="0.5,3,0.5,3,0.5,3"></path>
            <path d="M40.449,17.454 C40.449,17.454 25.324,11.961 12.074,20.645 C-1.176,29.329 9.199,44.954 14.824,46.079" id="Path" stroke-dasharray="0.5,3,0.5,3,0.5,3"></path>
            <path d="M31.574,18.579 C31.574,18.579 9.699,22.329 16.324,39.079 C19.074,46.704 35.824,51.954 42.199,51.454" id="Path" stroke-dasharray="0.5,3,0.5,3,0.5,3"></path>
            <path d="M26.074,24.204 C26.074,24.204 15.949,34.204 31.199,42.829 C46.449,51.454 66.699,41.579 66.699,41.579" id="Path" stroke-dasharray="0.5,3,0.5,3,0.5,3"></path>
            <path d="M27.699,28.329 C27.699,28.329 27.199,36.454 38.449,39.704 C49.699,42.954 72.324,40.454 75.074,21.954" id="Path" stroke-dasharray="0.5,3,0.5,3,0.5,3"></path>
        </g>
        <g id="noun_Planet_854256" opacity="0.336704799" transform="translate(1246.000000, 706.000000)" stroke="#FFFFFF" stroke-linecap="round" stroke-linejoin="round">
            <path d="M37.949,30.579 C42.5743848,30.579 46.324,28.1165661 46.324,25.079 C46.324,22.0414339 42.5743848,19.579 37.949,19.579 C33.3236152,19.579 29.574,22.0414339 29.574,25.079 C29.574,28.1165661 33.3236152,30.579 37.949,30.579 Z" id="Oval" stroke-dasharray="0.5241,3.1446,0.5241,3.1446,0.5241,3.1446"></path>
            <path d="M34.324,32.829 C34.324,32.829 58.651,45.009 67.776,22.259 C69.449,15.454 67.324,8.829 60.449,5.204" id="Path" stroke-dasharray="0.5,3,0.5,3,0.5,3"></path>
            <path d="M42.699,32.329 C42.699,32.329 60.324,32.204 60.074,17.204 C59.824,2.204 38.449,-0.421 32.699,0.329" id="Path" stroke-dasharray="0.5,3,0.5,3,0.5,3"></path>
            <path d="M48.949,27.329 C48.949,27.329 60.199,16.329 42.574,7.704 C24.949,-0.921 7.574,11.079 7.574,11.079" id="Path" stroke-dasharray="0.5,3,0.5,3,0.5,3"></path>
            <path d="M47.324,21.829 C47.324,21.829 44.074,10.329 25.699,9.829 C7.324,9.329 -1.801,23.829 0.324,29.579" id="Path" stroke-dasharray="0.5,3,0.5,3,0.5,3"></path>
            <path d="M40.449,17.454 C40.449,17.454 25.324,11.961 12.074,20.645 C-1.176,29.329 9.199,44.954 14.824,46.079" id="Path" stroke-dasharray="0.5,3,0.5,3,0.5,3"></path>
            <path d="M31.574,18.579 C31.574,18.579 9.699,22.329 16.324,39.079 C19.074,46.704 35.824,51.954 42.199,51.454" id="Path" stroke-dasharray="0.5,3,0.5,3,0.5,3"></path>
            <path d="M26.074,24.204 C26.074,24.204 15.949,34.204 31.199,42.829 C46.449,51.454 66.699,41.579 66.699,41.579" id="Path" stroke-dasharray="0.5,3,0.5,3,0.5,3"></path>
            <path d="M27.699,28.329 C27.699,28.329 27.199,36.454 38.449,39.704 C49.699,42.954 72.324,40.454 75.074,21.954" id="Path" stroke-dasharray="0.5,3,0.5,3,0.5,3"></path>
        </g>
        <g id="noun_meteor_854278" opacity="0.336704799" transform="translate(291.000000, 180.000000)" stroke="#FFFFFF" stroke-linecap="round" stroke-linejoin="round" stroke-width="2">
            <polygon id="Path" points="45.152 45.727 46.5 48.46 49.516 48.898 47.334 51.025 47.849 54.029 45.152 52.611 42.454 54.029 42.969 51.025 40.787 48.898 43.803 48.46"></polygon>
            <path d="M8.363,7.696 C7.005,6.943 5.627,6.277 4.232,5.716" id="Path"></path>
            <path d="M40.787,42.966 C40.787,42.966 27.727,20.062 10.949,9.246" id="Path"></path>
            <path d="M14.787,18.614 C10.186,15.006 5.205,11.962 0.105,10.266" id="Path"></path>
            <path d="M20.281,23.334 C19.197,22.319 18.08,21.319 16.934,20.348" id="Path"></path>
            <path d="M38.88,45.198 C38.88,45.198 32.077,34.809 22.181,25.135" id="Path"></path>
            <path d="M32.122,23.332 C35.827,28.367 38.771,33.152 40.785,36.672" id="Path"></path>
            <path d="M7.483,0.505 C16.203,4.935 23.851,12.698 29.856,20.349" id="Path"></path>
            <path d="M43.869,42.416 C43.869,42.416 43.443,41.533 42.633,40.013" id="Path"></path>
        </g>
        <g id="noun_sun_854297" opacity="0.336704799" transform="translate(169.000000, 346.000000)" stroke="#FFFFFF" stroke-width="2">
            <path d="M26.501,52.751 C24.879,52.751 23.671,48.742 22.137,48.439 C20.557,48.126 17.911,51.362 16.457,50.759 C14.978,50.146 15.399,45.981 14.084,45.101 C12.76,44.214 9.072,46.19 7.949,45.067 C6.826,43.944 8.802,40.256 7.915,38.932 C7.035,37.618 2.87,38.038 2.257,36.559 C1.654,35.106 4.89,32.459 4.578,30.88 C4.275,29.347 0.266,28.139 0.266,26.517 C0.266,24.895 4.275,23.687 4.578,22.153 C4.891,20.573 1.655,17.927 2.258,16.473 C2.871,14.994 7.036,15.415 7.916,14.1 C8.803,12.776 6.827,9.088 7.95,7.965 C9.073,6.842 12.761,8.818 14.085,7.931 C15.399,7.051 14.979,2.886 16.458,2.273 C17.911,1.67 20.558,4.906 22.137,4.594 C23.67,4.291 24.878,0.282 26.5,0.282 C28.122,0.282 29.33,4.291 30.864,4.594 C32.444,4.907 35.09,1.671 36.544,2.274 C38.023,2.887 37.602,7.052 38.917,7.932 C40.241,8.819 43.929,6.843 45.052,7.966 C46.175,9.089 44.199,12.777 45.086,14.101 C45.966,15.415 50.131,14.995 50.744,16.474 C51.347,17.927 48.111,20.574 48.423,22.153 C48.726,23.686 52.735,24.894 52.735,26.516 C52.735,28.138 48.726,29.346 48.423,30.88 C48.11,32.46 51.346,35.106 50.743,36.56 C50.13,38.039 45.965,37.618 45.085,38.933 C44.198,40.257 46.174,43.945 45.051,45.068 C43.928,46.191 40.24,44.215 38.916,45.102 C37.602,45.982 38.022,50.147 36.543,50.76 C35.09,51.363 32.443,48.127 30.864,48.439 C29.331,48.742 28.123,52.751 26.501,52.751 Z" id="Path"></path>
            <circle id="Oval" cx="26.501" cy="26.516" r="17.457"></circle>
        </g>
        <g id="noun_sun_854297" opacity="0.336704799" transform="translate(1130.000000, 150.000000)" stroke="#FFFFFF" stroke-width="2">
            <path d="M26.501,52.751 C24.879,52.751 23.671,48.742 22.137,48.439 C20.557,48.126 17.911,51.362 16.457,50.759 C14.978,50.146 15.399,45.981 14.084,45.101 C12.76,44.214 9.072,46.19 7.949,45.067 C6.826,43.944 8.802,40.256 7.915,38.932 C7.035,37.618 2.87,38.038 2.257,36.559 C1.654,35.106 4.89,32.459 4.578,30.88 C4.275,29.347 0.266,28.139 0.266,26.517 C0.266,24.895 4.275,23.687 4.578,22.153 C4.891,20.573 1.655,17.927 2.258,16.473 C2.871,14.994 7.036,15.415 7.916,14.1 C8.803,12.776 6.827,9.088 7.95,7.965 C9.073,6.842 12.761,8.818 14.085,7.931 C15.399,7.051 14.979,2.886 16.458,2.273 C17.911,1.67 20.558,4.906 22.137,4.594 C23.67,4.291 24.878,0.282 26.5,0.282 C28.122,0.282 29.33,4.291 30.864,4.594 C32.444,4.907 35.09,1.671 36.544,2.274 C38.023,2.887 37.602,7.052 38.917,7.932 C40.241,8.819 43.929,6.843 45.052,7.966 C46.175,9.089 44.199,12.777 45.086,14.101 C45.966,15.415 50.131,14.995 50.744,16.474 C51.347,17.927 48.111,20.574 48.423,22.153 C48.726,23.686 52.735,24.894 52.735,26.516 C52.735,28.138 48.726,29.346 48.423,30.88 C48.11,32.46 51.346,35.106 50.743,36.56 C50.13,38.039 45.965,37.618 45.085,38.933 C44.198,40.257 46.174,43.945 45.051,45.068 C43.928,46.191 40.24,44.215 38.916,45.102 C37.602,45.982 38.022,50.147 36.543,50.76 C35.09,51.363 32.443,48.127 30.864,48.439 C29.331,48.742 28.123,52.751 26.501,52.751 Z" id="Path"></path>
            <circle id="Oval" cx="26.501" cy="26.516" r="17.457"></circle>
        </g>
        <g id="noun_Moon_854315" opacity="0.336704799" transform="translate(1183.000000, 399.000000)" stroke="#FFFFFF" stroke-linecap="round" stroke-linejoin="round" stroke-width="2">
            <path d="M16.8050819,17.6978587 C16.8050819,10.5635518 20.1249669,4.19854626 25.3164064,0.0267173073 C24.9630582,0.0117870473 24.6089159,0 24.2515975,0 C10.8577154,0 0,10.7450724 0,24 C0,37.2549276 10.8577154,48 24.2515975,48 C31.2613907,48 37.5724279,45.0532382 42,40.3478489 C41.2750406,40.4162137 40.5421409,40.4539323 39.7989186,40.4539323 C27.0998223,40.4539323 16.8050819,30.2659944 16.8050819,17.6978587 Z" id="Path"></path>
        </g>
        <g id="noun_Moon_854315" opacity="0.336704799" transform="translate(386.000000, -11.000000)" stroke="#FFFFFF" stroke-linecap="round" stroke-linejoin="round" stroke-width="2">
            <path d="M16.8050819,17.6978587 C16.8050819,10.5635518 20.1249669,4.19854626 25.3164064,0.0267173073 C24.9630582,0.0117870473 24.6089159,0 24.2515975,0 C10.8577154,0 0,10.7450724 0,24 C0,37.2549276 10.8577154,48 24.2515975,48 C31.2613907,48 37.5724279,45.0532382 42,40.3478489 C41.2750406,40.4162137 40.5421409,40.4539323 39.7989186,40.4539323 C27.0998223,40.4539323 16.8050819,30.2659944 16.8050819,17.6978587 Z" id="Path"></path>
        </g>
        <g id="noun_Star_854317" opacity="0.336704799" transform="translate(42.000000, 557.000000)" stroke="#FFFFFF" stroke-linecap="round" stroke-linejoin="round" stroke-width="2">
            <path d="M15.23,30.901 C15.23,30.901 14.292,18.58 0.23,15.499 C14.292,12.419 15.23,0.097 15.23,0.097 C15.23,0.097 16.168,12.418 30.23,15.499 C16.168,18.58 15.23,30.901 15.23,30.901 Z" id="Path"></path>
        </g>
        <g id="noun_Star_854317" opacity="0.336704799" transform="translate(934.000000, 110.000000)" stroke="#FFFFFF" stroke-linecap="round" stroke-linejoin="round" stroke-width="2">
            <path d="M15.23,30.901 C15.23,30.901 14.292,18.58 0.23,15.499 C14.292,12.419 15.23,0.097 15.23,0.097 C15.23,0.097 16.168,12.418 30.23,15.499 C16.168,18.58 15.23,30.901 15.23,30.901 Z" id="Path"></path>
        </g>
        <g id="noun_Star_854274" opacity="0.336704799" transform="translate(1214.000000, 32.000000)" stroke="#FFFFFF" stroke-linecap="round" stroke-linejoin="round">
            <path d="M5.847,0.843 C5.847,0.843 6.035,6.068 1.14,5.692" id="Path"></path>
            <path d="M10.716,5.71 C10.716,5.71 5.491,5.898 5.867,1.003" id="Path"></path>
            <path d="M5.849,10.579 C5.849,10.579 5.661,5.354 10.556,5.73" id="Path"></path>
            <path d="M0.98,5.712 C0.98,5.712 6.205,5.524 5.829,10.419" id="Path"></path>
        </g>
        <g id="noun_Star_854274" opacity="0.336704799" transform="translate(110.000000, 801.000000)" stroke="#FFFFFF" stroke-linecap="round" stroke-linejoin="round">
            <path d="M5.847,0.843 C5.847,0.843 6.035,6.068 1.14,5.692" id="Path"></path>
            <path d="M10.716,5.71 C10.716,5.71 5.491,5.898 5.867,1.003" id="Path"></path>
            <path d="M5.849,10.579 C5.849,10.579 5.661,5.354 10.556,5.73" id="Path"></path>
            <path d="M0.98,5.712 C0.98,5.712 6.205,5.524 5.829,10.419" id="Path"></path>
        </g>
        <g id="noun_Star_854274" opacity="0.336704799" transform="translate(1385.000000, 700.000000)" stroke="#FFFFFF" stroke-linecap="round" stroke-linejoin="round">
            <path d="M5.847,0.843 C5.847,0.843 6.035,6.068 1.14,5.692" id="Path"></path>
            <path d="M10.716,5.71 C10.716,5.71 5.491,5.898 5.867,1.003" id="Path"></path>
            <path d="M5.849,10.579 C5.849,10.579 5.661,5.354 10.556,5.73" id="Path"></path>
            <path d="M0.98,5.712 C0.98,5.712 6.205,5.524 5.829,10.419" id="Path"></path>
        </g>
        <g id="noun_Star_854274" opacity="0.336704799" transform="translate(454.000000, 155.000000)" stroke="#FFFFFF" stroke-linecap="round" stroke-linejoin="round">
            <path d="M5.847,0.843 C5.847,0.843 6.035,6.068 1.14,5.692" id="Path"></path>
            <path d="M10.716,5.71 C10.716,5.71 5.491,5.898 5.867,1.003" id="Path"></path>
            <path d="M5.849,10.579 C5.849,10.579 5.661,5.354 10.556,5.73" id="Path"></path>
            <path d="M0.98,5.712 C0.98,5.712 6.205,5.524 5.829,10.419" id="Path"></path>
        </g>
        <g id="noun_Star_854274" opacity="0.336704799" transform="translate(737.000000, 24.000000)" stroke="#FFFFFF" stroke-linecap="round" stroke-linejoin="round">
            <path d="M5.847,0.843 C5.847,0.843 6.035,6.068 1.14,5.692" id="Path"></path>
            <path d="M10.716,5.71 C10.716,5.71 5.491,5.898 5.867,1.003" id="Path"></path>
            <path d="M5.849,10.579 C5.849,10.579 5.661,5.354 10.556,5.73" id="Path"></path>
            <path d="M0.98,5.712 C0.98,5.712 6.205,5.524 5.829,10.419" id="Path"></path>
        </g>
        <g id="noun_Star_854317" opacity="0.336704799" transform="translate(1246.000000, 248.000000)" stroke="#FFFFFF" stroke-linecap="round" stroke-linejoin="round" stroke-width="2">
            <path d="M15.23,30.901 C15.23,30.901 14.292,18.58 0.23,15.499 C14.292,12.419 15.23,0.097 15.23,0.097 C15.23,0.097 16.168,12.418 30.23,15.499 C16.168,18.58 15.23,30.901 15.23,30.901 Z" id="Path"></path>
        </g>
        <g id="noun_Star_854272" opacity="0.336704799" transform="translate(1072.000000, 32.000000)" stroke="#FFFFFF" stroke-linecap="round" stroke-linejoin="round" stroke-width="2">
            <path d="M9.289,0.534 C9.289,0.534 9.622,9.784 0.956,9.117" id="Path"></path>
            <path d="M17.908,9.15 C17.908,9.15 8.658,9.483 9.325,0.817" id="Path"></path>
            <path d="M9.292,17.77 C9.292,17.77 8.959,8.52 17.625,9.187" id="Path"></path>
            <path d="M0.671,9.154 C0.671,9.154 9.921,8.821 9.254,17.488" id="Path"></path>
        </g>
        <g id="noun_Star_854272" opacity="0.336704799" transform="translate(216.000000, 246.000000)" stroke="#FFFFFF" stroke-linecap="round" stroke-linejoin="round" stroke-width="2">
            <path d="M9.289,0.534 C9.289,0.534 9.622,9.784 0.956,9.117" id="Path"></path>
            <path d="M17.908,9.15 C17.908,9.15 8.658,9.483 9.325,0.817" id="Path"></path>
            <path d="M9.292,17.77 C9.292,17.77 8.959,8.52 17.625,9.187" id="Path"></path>
            <path d="M0.671,9.154 C0.671,9.154 9.921,8.821 9.254,17.488" id="Path"></path>
        </g>
        <g id="noun_Star_854272" opacity="0.336704799" transform="translate(524.000000, 77.000000)" stroke="#FFFFFF" stroke-linecap="round" stroke-linejoin="round" stroke-width="2">
            <path d="M9.289,0.534 C9.289,0.534 9.622,9.784 0.956,9.117" id="Path"></path>
            <path d="M17.908,9.15 C17.908,9.15 8.658,9.483 9.325,0.817" id="Path"></path>
            <path d="M9.292,17.77 C9.292,17.77 8.959,8.52 17.625,9.187" id="Path"></path>
            <path d="M0.671,9.154 C0.671,9.154 9.921,8.821 9.254,17.488" id="Path"></path>
        </g>
        <g id="noun_Star_854272" opacity="0.336704799" transform="translate(838.000000, 68.000000)" stroke="#FFFFFF" stroke-linecap="round" stroke-linejoin="round" stroke-width="2">
            <path d="M9.289,0.534 C9.289,0.534 9.622,9.784 0.956,9.117" id="Path"></path>
            <path d="M17.908,9.15 C17.908,9.15 8.658,9.483 9.325,0.817" id="Path"></path>
            <path d="M9.292,17.77 C9.292,17.77 8.959,8.52 17.625,9.187" id="Path"></path>
            <path d="M0.671,9.154 C0.671,9.154 9.921,8.821 9.254,17.488" id="Path"></path>
        </g>
        <g id="noun_Star_854272" opacity="0.336704799" transform="translate(158.000000, 101.000000)" stroke="#FFFFFF" stroke-linecap="round" stroke-linejoin="round" stroke-width="2">
            <path d="M9.289,0.534 C9.289,0.534 9.622,9.784 0.956,9.117" id="Path"></path>
            <path d="M17.908,9.15 C17.908,9.15 8.658,9.483 9.325,0.817" id="Path"></path>
            <path d="M9.292,17.77 C9.292,17.77 8.959,8.52 17.625,9.187" id="Path"></path>
            <path d="M0.671,9.154 C0.671,9.154 9.921,8.821 9.254,17.488" id="Path"></path>
        </g>
        <g id="noun_Star_854272" opacity="0.336704799" transform="translate(107.000000, 44.000000)" stroke="#FFFFFF" stroke-linecap="round" stroke-linejoin="round" stroke-width="2">
            <path d="M9.289,0.534 C9.289,0.534 9.622,9.784 0.956,9.117" id="Path"></path>
            <path d="M17.908,9.15 C17.908,9.15 8.658,9.483 9.325,0.817" id="Path"></path>
            <path d="M9.292,17.77 C9.292,17.77 8.959,8.52 17.625,9.187" id="Path"></path>
            <path d="M0.671,9.154 C0.671,9.154 9.921,8.821 9.254,17.488" id="Path"></path>
        </g>
        <g id="noun_Star_854272" opacity="0.336704799" transform="translate(1341.000000, 522.000000)" stroke="#FFFFFF" stroke-linecap="round" stroke-linejoin="round" stroke-width="2">
            <path d="M9.289,0.534 C9.289,0.534 9.622,9.784 0.956,9.117" id="Path"></path>
            <path d="M17.908,9.15 C17.908,9.15 8.658,9.483 9.325,0.817" id="Path"></path>
            <path d="M9.292,17.77 C9.292,17.77 8.959,8.52 17.625,9.187" id="Path"></path>
            <path d="M0.671,9.154 C0.671,9.154 9.921,8.821 9.254,17.488" id="Path"></path>
        </g>
        <g id="noun_Star_854272" opacity="0.336704799" transform="translate(1375.000000, 393.000000)" stroke="#FFFFFF" stroke-linecap="round" stroke-linejoin="round" stroke-width="2">
            <path d="M9.289,0.534 C9.289,0.534 9.622,9.784 0.956,9.117" id="Path"></path>
            <path d="M17.908,9.15 C17.908,9.15 8.658,9.483 9.325,0.817" id="Path"></path>
            <path d="M9.292,17.77 C9.292,17.77 8.959,8.52 17.625,9.187" id="Path"></path>
            <path d="M0.671,9.154 C0.671,9.154 9.921,8.821 9.254,17.488" id="Path"></path>
        </g>
        <g id="noun_Star_854272" opacity="0.336704799" transform="translate(204.000000, 652.000000)" stroke="#FFFFFF" stroke-linecap="round" stroke-linejoin="round" stroke-width="2">
            <path d="M9.289,0.534 C9.289,0.534 9.622,9.784 0.956,9.117" id="Path"></path>
            <path d="M17.908,9.15 C17.908,9.15 8.658,9.483 9.325,0.817" id="Path"></path>
            <path d="M9.292,17.77 C9.292,17.77 8.959,8.52 17.625,9.187" id="Path"></path>
            <path d="M0.671,9.154 C0.671,9.154 9.921,8.821 9.254,17.488" id="Path"></path>
        </g>
        <g id="noun_Star_854272" opacity="0.336704799" transform="translate(1196.000000, 588.000000)" stroke="#FFFFFF" stroke-linecap="round" stroke-linejoin="round" stroke-width="2">
            <path d="M9.289,0.534 C9.289,0.534 9.622,9.784 0.956,9.117" id="Path"></path>
            <path d="M17.908,9.15 C17.908,9.15 8.658,9.483 9.325,0.817" id="Path"></path>
            <path d="M9.292,17.77 C9.292,17.77 8.959,8.52 17.625,9.187" id="Path"></path>
            <path d="M0.671,9.154 C0.671,9.154 9.921,8.821 9.254,17.488" id="Path"></path>
        </g>
        <g id="noun_Star_854274" opacity="0.336704799" transform="translate(184.000000, 465.000000)" stroke="#FFFFFF" stroke-linecap="round" stroke-linejoin="round">
            <path d="M5.847,0.843 C5.847,0.843 6.035,6.068 1.14,5.692" id="Path"></path>
            <path d="M10.716,5.71 C10.716,5.71 5.491,5.898 5.867,1.003" id="Path"></path>
            <path d="M5.849,10.579 C5.849,10.579 5.661,5.354 10.556,5.73" id="Path"></path>
            <path d="M0.98,5.712 C0.98,5.712 6.205,5.524 5.829,10.419" id="Path"></path>
        </g>
        <g id="noun_Star_854274" opacity="0.336704799" transform="translate(37.000000, 358.000000)" stroke="#FFFFFF" stroke-linecap="round" stroke-linejoin="round">
            <path d="M5.847,0.843 C5.847,0.843 6.035,6.068 1.14,5.692" id="Path"></path>
            <path d="M10.716,5.71 C10.716,5.71 5.491,5.898 5.867,1.003" id="Path"></path>
            <path d="M5.849,10.579 C5.849,10.579 5.661,5.354 10.556,5.73" id="Path"></path>
            <path d="M0.98,5.712 C0.98,5.712 6.205,5.524 5.829,10.419" id="Path"></path>
        </g>
        <g id="noun_Star_854274" opacity="0.336704799" transform="translate(260.000000, 30.000000)" stroke="#FFFFFF" stroke-linecap="round" stroke-linejoin="round">
            <path d="M5.847,0.843 C5.847,0.843 6.035,6.068 1.14,5.692" id="Path"></path>
            <path d="M10.716,5.71 C10.716,5.71 5.491,5.898 5.867,1.003" id="Path"></path>
            <path d="M5.849,10.579 C5.849,10.579 5.661,5.354 10.556,5.73" id="Path"></path>
            <path d="M0.98,5.712 C0.98,5.712 6.205,5.524 5.829,10.419" id="Path"></path>
        </g>
        <g id="noun_Star_854274" opacity="0.336704799" transform="translate(1316.000000, 126.000000)" stroke="#FFFFFF" stroke-linecap="round" stroke-linejoin="round">
            <path d="M5.847,0.843 C5.847,0.843 6.035,6.068 1.14,5.692" id="Path"></path>
            <path d="M10.716,5.71 C10.716,5.71 5.491,5.898 5.867,1.003" id="Path"></path>
            <path d="M5.849,10.579 C5.849,10.579 5.661,5.354 10.556,5.73" id="Path"></path>
            <path d="M0.98,5.712 C0.98,5.712 6.205,5.524 5.829,10.419" id="Path"></path>
        </g>
        <g id="noun_Star_854274" opacity="0.336704799" transform="translate(335.000000, 74.000000)" stroke="#FFFFFF" stroke-linecap="round" stroke-linejoin="round">
            <path d="M5.847,0.843 C5.847,0.843 6.035,6.068 1.14,5.692" id="Path"></path>
            <path d="M10.716,5.71 C10.716,5.71 5.491,5.898 5.867,1.003" id="Path"></path>
            <path d="M5.849,10.579 C5.849,10.579 5.661,5.354 10.556,5.73" id="Path"></path>
            <path d="M0.98,5.712 C0.98,5.712 6.205,5.524 5.829,10.419" id="Path"></path>
        </g>
        <g id="noun_Star_854274" opacity="0.336704799" transform="translate(17.000000, 72.000000)" stroke="#FFFFFF" stroke-linecap="round" stroke-linejoin="round">
            <path d="M5.847,0.843 C5.847,0.843 6.035,6.068 1.14,5.692" id="Path"></path>
            <path d="M10.716,5.71 C10.716,5.71 5.491,5.898 5.867,1.003" id="Path"></path>
            <path d="M5.849,10.579 C5.849,10.579 5.661,5.354 10.556,5.73" id="Path"></path>
            <path d="M0.98,5.712 C0.98,5.712 6.205,5.524 5.829,10.419" id="Path"></path>
        </g>
        <g id="noun_Star_854274" opacity="0.336704799" transform="translate(64.000000, 711.000000)" stroke="#FFFFFF" stroke-linecap="round" stroke-linejoin="round">
            <path d="M5.847,0.843 C5.847,0.843 6.035,6.068 1.14,5.692" id="Path"></path>
            <path d="M10.716,5.71 C10.716,5.71 5.491,5.898 5.867,1.003" id="Path"></path>
            <path d="M5.849,10.579 C5.849,10.579 5.661,5.354 10.556,5.73" id="Path"></path>
            <path d="M0.98,5.712 C0.98,5.712 6.205,5.524 5.829,10.419" id="Path"></path>
        </g>
        <g id="noun_Star_854274" opacity="0.336704799" transform="translate(1369.000000, 924.000000)" stroke="#FFFFFF" stroke-linecap="round" stroke-linejoin="round">
            <path d="M5.847,0.843 C5.847,0.843 6.035,6.068 1.14,5.692" id="Path"></path>
            <path d="M10.716,5.71 C10.716,5.71 5.491,5.898 5.867,1.003" id="Path"></path>
            <path d="M5.849,10.579 C5.849,10.579 5.661,5.354 10.556,5.73" id="Path"></path>
            <path d="M0.98,5.712 C0.98,5.712 6.205,5.524 5.829,10.419" id="Path"></path>
        </g>
        <g id="noun_Star_854274" opacity="0.336704799" transform="translate(68.000000, 924.000000)" stroke="#FFFFFF" stroke-linecap="round" stroke-linejoin="round">
            <path d="M5.847,0.843 C5.847,0.843 6.035,6.068 1.14,5.692" id="Path"></path>
            <path d="M10.716,5.71 C10.716,5.71 5.491,5.898 5.867,1.003" id="Path"></path>
            <path d="M5.849,10.579 C5.849,10.579 5.661,5.354 10.556,5.73" id="Path"></path>
            <path d="M0.98,5.712 C0.98,5.712 6.205,5.524 5.829,10.419" id="Path"></path>
        </g>
        <g id="noun_Planet_854314" opacity="0.336704799" transform="translate(1331.000000, 24.000000)" stroke="#FFFFFF" stroke-linecap="round" stroke-linejoin="round">
            <circle id="Oval" stroke-width="2" cx="29.75" cy="29.625" r="3.375"></circle>
            <path d="M29.75,26.25 C29.75,26.25 22.625,24.875 21.125,29.625 C19.625,34.375 22.125,37.5 26.375,40.375 C30.625,43.25 43.125,46.375 46.875,35.625 C50.625,24.875 36.5,9.5 29.75,4.875 C23,0.25 11.25,-1.25 3.5,1.25" id="Path" stroke-width="2"></path>
            <path d="M29.75,33 C29.75,33 37.125,35 36.25,26.25 C35.375,17.5 16.625,12.625 11.25,20.625 C5.875,28.625 12.375,45.375 24.5,49.125 C28.202,50.283 59.375,61.5 55.75,28.375" id="Path" stroke-width="2"></path>
            <path d="M17.575,45.163 C17.575,45.163 27.625,60.625 51.75,58.625" id="Path" stroke-width="2"></path>
            <path d="M41.812,17.318 C41.812,17.318 21.5,-2.125 6.25,12.875 C1.25,19.375 -1.75,25.5 2.375,34.223" id="Path" stroke-width="2"></path>
            <circle id="Oval" stroke-width="2" cx="51.75" cy="14.875" r="2.75"></circle>
            <circle id="Oval" cx="57.5" cy="22.25" r="1.75"></circle>
            <circle id="Oval" cx="8.262" cy="49.085" r="1.75"></circle>
            <circle id="Oval" cx="57.5" cy="1.8" r="1.75"></circle>
        </g>
    </g>
</svg>